<svg xmlns="http://www.w3.org/2000/svg" xmlns:xlink="http://www.w3.org/1999/xlink" width="69.585" height="79.469" viewBox="0 0 69.585 79.469">
  <defs>
    <clipPath id="clip-path">
      <rect id="Rectangle_51" data-name="Rectangle 51" width="69.585" height="79.469" transform="translate(0)" fill="#1f7757"/>
    </clipPath>
  </defs>
  <g id="Group_13" data-name="Group 13" transform="translate(0)" clip-path="url(#clip-path)">
    <path id="Path_8" data-name="Path 8" d="M24.843,76.239V63.768c0-.361-.021-.721-.021-1.082,0-.539-.2-.773-.8-.738-1,.057-1,.016-1.027,1.038-.179,6.722.045,13.442.038,20.163q0,3.243-.045,6.485a3.642,3.642,0,0,1-2.461,3.379,3.235,3.235,0,0,1-4.084-2.828,16.584,16.584,0,0,1-.145-3.042q0-4.326.026-8.652c.015-3.35.086-6.7.042-10.05-.045-3.555-.257-7.118-.283-10.677-.031-4.368-.327-8.722-.513-13.082-.036-.82-.049-1.653-.093-2.478-.01-.187.072-.495-.217-.513a.547.547,0,0,0-.547.45c-.249.853-.5,1.706-.76,2.555-.84,2.735-1.7,5.45-2.514,8.187-.17.573-.358.625-.777.265a4.9,4.9,0,0,0-3.578-.975c-.957.036-.957,0-.684-.872Q8.932,43.15,11.476,35A10.89,10.89,0,0,1,13.3,31.328a5.26,5.26,0,0,1,2.9-1.828.684.684,0,0,1,.82.273A7.881,7.881,0,0,0,28.8,30.6c.26-.249.5-.514.748-.779.614-.673.9-.8,1.723-.421a7.357,7.357,0,0,1,4.1,4.035c1.9,5.1,3.589,10.263,5.321,15.416.518,1.545,1.053,3.085,1.564,4.631a4.649,4.649,0,0,1,.273,2.058,2.111,2.111,0,0,1-1.575,1.809,1.894,1.894,0,0,1-2.16-.671,9.732,9.732,0,0,1-1.6-2.942c-1.315-3.372-2.61-6.75-4.064-10.066-.153-.349-.328-.684-.506-1.024-.064-.123-.113-.3-.3-.273-.167.021-.226.176-.287.31a2.637,2.637,0,0,0-.247,1.106c.01,1.993-.15,3.99-.081,5.975.171,4.9-.22,9.783-.216,14.676q.008,10.432-.012,20.866a35.472,35.472,0,0,1-.067,4.7,3.346,3.346,0,0,1-3.089,3.163,3.493,3.493,0,0,1-3.461-3.431c-.064-1.992-.059-3.986-.067-5.979-.01-2.5,0-5,0-7.5h.06" transform="translate(-2.928 -13.688)" fill="#1f7757"/>
    <path id="Path_9" data-name="Path 9" d="M70.113,49.708a12.289,12.289,0,0,1-1.192-3.087,28,28,0,0,0-1.073-3.184,2.962,2.962,0,0,1-.077-2.226c.418-1.2.8-2.411,1.269-3.589a6.471,6.471,0,0,1,4.541-4.252A1.293,1.293,0,0,1,75,33.763a7.943,7.943,0,0,0,4.727,2.771,7.616,7.616,0,0,0,6.629-1.769c.345-.314.718-.6,1.031-.945a1.01,1.01,0,0,1,1.248-.238,5.369,5.369,0,0,1,3.5,3.348C94.195,42.775,96.195,48.642,98,54.569c.146.483.165.684-.462.6a4.6,4.6,0,0,0-3.816.983c-.365.317-.6.309-.73-.226-.107-.451-.291-.885-.425-1.33s-.392-.457-.708-.205a7.246,7.246,0,0,0-1.24,1.359c-.107.137-.215.38-.429.287-.165-.071-.094-.3-.1-.466-.01-.912-.011-1.824-.012-2.735,0-.522-.249-.719-.766-.644-.263.038-.383.145-.371.41v.063c.137,1.836-.3,3.675-.1,5.491.273,2.484.38,4.98.673,7.46.254,2.164.474,4.334.684,6.5.219,2.277.388,4.557.621,6.836.055.547-.045.82-.615.93-.515.1-1.008.323-1.52.444a.712.712,0,0,0-.639.785c-.045,2.267-.022,4.533.1,6.8a13.046,13.046,0,0,1-.353,4.224,2.938,2.938,0,0,1-3.154,2.315,2.822,2.822,0,0,1-2.929-2.4,9.265,9.265,0,0,1-.228-2.461c0-2.631,0-5.26.021-7.889,0-.466-.129-.628-.608-.625-1.231.007-1.251-.014-1.22,1.244a74.39,74.39,0,0,1-.023,7.817,12.686,12.686,0,0,1-.376,2.378,2.274,2.274,0,0,1-1.265,1.5,3.254,3.254,0,0,1-4.831-2.532,87.307,87.307,0,0,1-.123-8.828c.022-.636.018-1.272.041-1.907a.47.47,0,0,0-.448-.563c-.561-.1-1.11-.273-1.674-.358-.453-.068-.6-.273-.558-.722.159-1.857.273-3.718.444-5.573.213-2.3.47-4.591.706-6.887.287-2.822.6-5.641.848-8.468.2-2.215.387-4.431.446-6.657a30.617,30.617,0,0,0-.145-4.948c-.038-.273.022-.7-.288-.76s-.518.309-.69.576a11.212,11.212,0,0,0-.856,1.914,5.132,5.132,0,0,1-.762,1.406" transform="translate(-31.706 -15.627)" fill="#1f7757"/>
    <path id="Path_10" data-name="Path 10" d="M24.624,12.429a7.449,7.449,0,0,1,9.243-7.553A6.789,6.789,0,0,1,38.715,9.9,8.085,8.085,0,0,1,37.64,17.52a7.08,7.08,0,0,1-6.869,2.735A6.776,6.776,0,0,1,25.2,15.536a8.093,8.093,0,0,1-.577-3.111" transform="translate(-11.551 -2.191)" fill="#1f7757"/>
    <path id="Path_11" data-name="Path 11" d="M94.039,17.214a6.733,6.733,0,0,1-3.616,6.366A6.917,6.917,0,0,1,83,23.434a7.584,7.584,0,0,1-3.245-7.817,7.3,7.3,0,0,1,9.412-5.808,6.973,6.973,0,0,1,4.66,5.49,10.126,10.126,0,0,1,.2,1.914" transform="translate(-37.374 -4.46)" fill="#1f7757"/>
    <path id="Path_12" data-name="Path 12" d="M7.418,99.63c0-3.9-.059-7.8.019-11.7C7.5,85,7.4,82.081,7.387,79.156a15.267,15.267,0,0,0-.123-1.71A2.393,2.393,0,0,0,5,75.49c-2.244-.267-3.555.9-3.735,3.327-.012.168-.018.338-.016.507,0,.267-.187.35-.39.436-.261.112-.41-.045-.528-.223A2.349,2.349,0,0,1,.076,77.7a5.87,5.87,0,0,1,.458-1.38A4.463,4.463,0,0,1,7,74.433a3.889,3.889,0,0,1,1.481,2.84,29.387,29.387,0,0,1,.226,6.847c-.146,3.18-.068,6.358-.086,9.537-.027,4.75,0,9.5.014,14.247,0,1.653.064,3.306.094,4.958.008.447-.055.84-.588.987-.32.089-.494.036-.526-.306-.07-.715-.176-1.43-.2-2.148-.116-3.921-.071-7.843,0-11.765" transform="translate(-0.003 -34.584)" fill="#1f7757"/>
    <path id="Path_13" data-name="Path 13" d="M115.105,96.558v-16.6a4.964,4.964,0,0,1,.45-2.156,4.139,4.139,0,0,1,4.534-2.03,4.4,4.4,0,0,1,3.452,5.018c-.031.325-.145.67-.536.684-.34.011-.507-.273-.582-.58s-.137-.618-.191-.931a2.758,2.758,0,0,0-3.165-2.58c-1.851.074-2.576.87-2.77,2.922a45.817,45.817,0,0,0-.016,5.714c.066,2.2.022,4.409.014,6.615q-.023,7.383-.057,14.756c-.008,1.972-.027,3.942-.042,5.913a3.923,3.923,0,0,1-.029.57.514.514,0,0,1-.4.443c-.216.051-.36-.1-.485-.245a1.347,1.347,0,0,1-.2-.971V96.553Z" transform="translate(-53.984 -35.509)" fill="#1f7757"/>
    <path id="Path_14" data-name="Path 14" d="M94.176,3.765c0,1.352-.258,1.541-1.473.984a6.244,6.244,0,0,0-4.817-.109c-1.24.422-1.319.354-1.292-.957A3.682,3.682,0,0,1,90.409,0a3.8,3.8,0,0,1,3.767,3.764" transform="translate(-40.618 -0.001)" fill="#1f7757"/>
    <path id="Path_15" data-name="Path 15" d="M58.719,70.937a1.886,1.886,0,0,1,.5.848c.555,1.489,1.231,2.926,1.887,4.375a.723.723,0,0,1-.172.948,2.292,2.292,0,0,1-2.735.48,2.132,2.132,0,0,1-.979-2.461,31.2,31.2,0,0,1,1.5-4.185" transform="translate(-26.812 -33.275)" fill="#1f7757"/>
    <path id="Path_16" data-name="Path 16" d="M7.245,80.145a2.349,2.349,0,0,1-1.112-.2.905.905,0,0,1-.422-.926c.018-.361.323-.42.573-.506a2.486,2.486,0,0,1,2.7.547c.425.539.365.712-.293.887a6.379,6.379,0,0,1-1.444.193" transform="translate(-2.679 -36.755)" fill="#1f7757"/>
    <path id="Path_17" data-name="Path 17" d="M120.91,80.244a2.955,2.955,0,0,1,.915.1c.261.109.684.1.7.425a.975.975,0,0,1-.547.938,2.888,2.888,0,0,1-2.726-.072c-.324-.185-.3-.41-.148-.684.422-.74,1.166-.636,1.8-.711" transform="translate(-55.82 -37.642)" fill="#1f7757"/>
  </g>
</svg>
